<svg xmlns="http://www.w3.org/2000/svg" width="539.818" height="358.974" viewBox="0 0 539.818 358.974"><defs><style>.a{fill:#f8efe3;}.b{fill:#ebceaa;}.c{fill:#fff;}.d{fill:none;}.e{fill:#6f5739;}.f{fill:#372c1c;}.g{fill:#11293a;}.h{fill:#061823;}.i{fill:#323232;}.j{fill:#fdfdfd;}.k{fill:#ddae71;}.l,.q{fill:#282b2e;}.m{fill:#d82723;}.n{fill:#890a00;}.o{fill:#403b38;}.p{fill:#a68355;}.q{font-size:12px;font-family:MyriadPro-Regular, Myriad Pro;}</style></defs><g transform="translate(-1747.828 -927.578)"><path class="a" d="M2171.7,1175.045v30.987c-.97.012-1.943.04-2.912.04H1750.74c-.421,0-.846,0-1.267-.012q-.858-2.444-1.645-4.859v-26.156c2.487.8,2.741-.91,2.737-3.338-.044-21.719.012-43.442-.087-65.161-.016-2.905.548-3.985,3.059-3.854,4.493.238,9,.02,13.5.091,1.613.028,2.829-.151,2.591-2.7-.124-1.315.437-1.935,1.577-1.915,1.005.016,1.557.54,1.462,1.712-.211,2.594.933,3.167,2.717,2.872,2.058-.337,2.741.644,2.718,3.238-.1,11.394.023,22.8-.076,34.194-.024,2.706.7,3.639,2.88,3.449a36,36,0,0,1,6.615-.024c2.292.218,2.948-.95,2.757-3.532-.143-1.923.052-3.873-.047-5.8-.1-1.915.441-2.722,2.089-2.662,2.11.079,4.227-.095,6.341-.163.258.048.52.091.782.143,2.146.393,4.891-1.164,6.333.806,1.383,1.892.465,5.161.457,7.815-.008,2.284.763,3,2.535,2.972,4.405-.084,8.819-.155,13.225.023,2.475.1,3.369-.81,3.345-4-.127-16.01-.028-32.021-.1-48.027-.012-2.467.516-3.429,2.674-3.341,4.58.182,9.173.182,13.753-.008,2.142-.088,2.873.548,2.821,3.345-.163,8.7-.02,17.405-.079,26.109-.012,2.165.54,3.119,2.419,3.063,4.585-.127,9.169-.083,13.754-.111,2.284.739,3.154-.219,2.979-3.171-.214-3.706-.123-7.44-.162-11.163.206-1.112-.338-2.523.878-3.23,2.9.044,5.8.107,8.7.123,3.56.024,3.536.008,3.536,4.287q-.012,24.1.039,48.214c0,1.1-.734,3.162,1.443,2.666a11.4,11.4,0,0,1,1.581.131c2.4.508,3.273-.6,3.063-3.608-.219-3.094-.06-6.233-.048-9.352,0-.822-.171-1.994.906-1.843,2.372.334,2.38-1.5,2.165-3.4-.318-2.789.668-3.385,2.8-3.277,4.231.21,8.478-.02,12.713.119,2.026.063,3.281-.421,2.844-3.313-.21-1.407.3-1.764,1.447-1.832,4.628-.286,4.624-.345,4.632,5.4.008,6.178.012,6.325,5.184,6.158,2.217-.072,2.587.926,2.559,3.325-.1,8.713,0,17.429-.052,26.141-.008,1.768.155,2.781,1.947,2.71,1.625-.068,2.328-.461,2.3-2.7-.115-7.743-.048-15.49-.044-23.237,0-6.217.008-6.38,5.014-6.166,2.443.1,3.047-.79,3.035-3.742-.1-24.85-.067-49.7-.063-74.554,0-1.489-.092-2.915.961-4.159,2.666-3.138,5.244-6.384,7.791-9.666.854-1.1,1.414-1.2,2.3-.028a65.644,65.644,0,0,0,5.574,6.877c2.61,2.634,3.3,5.725,3.281,9.8-.139,34.643-.087,69.286-.047,103.929,0,1.08-.6,2.514.9,3.607,0-5.157.055-9.98-.028-14.8-.028-1.744.29-2.538,1.875-2.443,2.467.143,4.946.115,7.417.012,1.4-.06,1.848.564,1.808,2.233-.08,3.329-.048,6.666,0,10,.008.763-.3,1.7.687,2.141,2.475,1.113,4.128-.242,4.128-3.48q0-46.8-.048-93.6c-.008-2.7.576-3.42,2.765-3.361,6.444.179,12.9.23,19.336-.024,2.55-.1,3.258.672,3.242,3.838-.112,26.463-.052,52.93-.108,79.4,0,2.158.394,2.964,2.321,2.976,1.958.016,2.288-.858,2.276-2.987-.076-12.157.02-24.314-.087-36.471-.02-2.415.492-3.087,2.487-3.051,7.592.147,15.188.044,22.78.072,1.318.007,2.347.127,2.324-2.245-.124-12.693-.116-25.382-.151-38.071q.053-14.75.111-29.506c.2-.6.4-1.2.608-1.8a2.368,2.368,0,0,0,1.088-1.72c.862-.342.986-1.228,1.065-2.149l0-.024c2.058-1.542,2.8-4.279,4.028-6.575.767-.12,1.085-.755,1.24-1.585a1.758,1.758,0,0,0,.791-1.443c3.925-5.375,7.238-11.326,10.809-17.035,2.69-4.291,5.3-8.649,8.351-13.627.211,2.054.33,3.194.445,4.331,0,1.092,0,2.185.008,3.273-.071,1.713-.21,3.421-.21,5.129q-.024,26.543,0,53.077c.008,8.792.079,17.579.123,26.367a10.156,10.156,0,0,0,.083,4.192q-.024,35.874-.035,71.748a18.839,18.839,0,0,0,.254,2.209c.234.243.409.234.48-.175q.048-23.884.1-47.761c.008-2.892.123-5.784.187-8.676q2.281-.042,4.56-.076a53.427,53.427,0,0,1,6.341.092c2.67.333,3.222-1.065,3.206-4.053-.091-18.8-.056-37.6-.04-56.4,0-6.683-.56-6,4.728-5.9,2.185.04,2.9-.8,2.86-3.516-.131-8.375.008-16.757-.067-25.136-.024-2.368.608-3.254,2.6-3.119,2.28.155,4.577-.063,6.869-.119,5.741.568,5.737.568,5.923,7.537.012.532.088,1.064.131,1.6-.055,4.719-.143,9.439-.155,14.163-.027,8.514-.007,8.514,6.838,8.533h.266c3.52.02,3.563.044,3.571,4.279q.018,15.625,0,31.25c0,5.932-.321,5,4.021,5.065,3.524.052,7.048.084,10.571.124.056,1.013.112,2.03.167,3.043-.051,7.155-.119,14.314-.143,21.469-.024,6.567-.008,6.567,5.53,6,3.139-.123,3.973,1.863,3.6,5.379-.243,2.221-.008,4.509-.052,6.761-.028,1.621.5,2.337,1.871,2.313,3.528-.06,7.056-.092,10.584,0,2.014.055,1.986-1.47,1.982-3.183-.012-9.348.072-18.7-.039-28.044-.032-2.761.564-3.805,2.967-3.651,3.87.247,7.759,0,11.637.1,1.7.04,2.419-.676,2.28-2.8-.111-1.708,0-3.436-.012-5.153-.008-1.295.111-2.316,1.53-2.324,1.358,0,1.617.854,1.593,2.233-.036,1.931.047,3.869-.024,5.8-.064,1.7.56,2.158,1.879,2.253,5.713.4,5.713.453,5.713,7.6,0,19.987.1,39.974-.1,59.957-.032,3.282,1.728,5.614,1.91,8.725C2168.444,1175.783,2170.506,1175.112,2171.7,1175.045Z"/><path class="a" d="M2287.647,1175.045v30.987c-.969.012-1.943.04-2.912.04h-418.05c-.421,0-.846,0-1.267-.012q-.858-2.444-1.645-4.859v-26.156c2.487.8,2.742-.91,2.738-3.338-.044-21.719.011-43.442-.088-65.161-.016-2.905.548-3.985,3.059-3.854,4.493.238,9,.02,13.5.091,1.613.028,2.828-.151,2.59-2.7-.123-1.315.437-1.935,1.577-1.915,1.005.016,1.558.54,1.462,1.712-.21,2.594.934,3.167,2.718,2.872,2.058-.337,2.741.644,2.717,3.238-.1,11.394.024,22.8-.075,34.194-.024,2.706.7,3.639,2.88,3.449a36,36,0,0,1,6.615-.024c2.292.218,2.947-.95,2.757-3.532-.143-1.923.051-3.873-.048-5.8-.1-1.915.441-2.722,2.09-2.662,2.109.079,4.227-.095,6.34-.163.258.048.521.091.783.143,2.145.393,4.89-1.164,6.333.806,1.382,1.892.464,5.161.456,7.815-.008,2.284.763,3,2.535,2.972,4.406-.084,8.82-.155,13.226.023,2.475.1,3.368-.81,3.345-4-.128-16.01-.028-32.021-.1-48.027-.012-2.467.517-3.429,2.674-3.341q6.871.273,13.754-.008c2.141-.088,2.872.548,2.82,3.345-.162,8.7-.019,17.405-.079,26.109-.012,2.165.54,3.119,2.419,3.063,4.585-.127,9.17-.083,13.754-.111,2.285.739,3.155-.219,2.98-3.171-.215-3.706-.123-7.44-.163-11.163.207-1.112-.338-2.523.878-3.23,2.9.044,5.8.107,8.7.123,3.56.024,3.536.008,3.536,4.287q-.012,24.1.04,48.214c0,1.1-.735,3.162,1.442,2.666a11.392,11.392,0,0,1,1.581.131c2.4.508,3.274-.6,3.063-3.608-.218-3.094-.059-6.233-.047-9.352,0-.822-.171-1.994.9-1.843,2.372.334,2.38-1.5,2.166-3.4-.318-2.789.667-3.385,2.8-3.277,4.231.21,8.478-.02,12.713.119,2.027.063,3.282-.421,2.845-3.313-.211-1.407.3-1.764,1.446-1.832,4.628-.286,4.624-.345,4.632,5.4.008,6.178.012,6.325,5.185,6.158,2.217-.072,2.586.926,2.558,3.325-.1,8.713,0,17.429-.051,26.141-.008,1.768.155,2.781,1.946,2.71,1.625-.068,2.328-.461,2.3-2.7-.116-7.743-.048-15.49-.044-23.237,0-6.217.008-6.38,5.014-6.166,2.443.1,3.047-.79,3.035-3.742-.1-24.85-.068-49.7-.064-74.554,0-1.489-.091-2.915.962-4.159,2.665-3.138,5.244-6.384,7.79-9.666.854-1.1,1.415-1.2,2.3-.028a65.543,65.543,0,0,0,5.573,6.877c2.611,2.634,3.3,5.725,3.282,9.8-.139,34.643-.087,69.286-.048,103.929,0,1.08-.6,2.514.9,3.607,0-5.157.056-9.98-.028-14.8-.028-1.744.29-2.538,1.875-2.443,2.468.143,4.947.115,7.418.012,1.4-.06,1.847.564,1.807,2.233-.079,3.329-.047,6.666,0,10,.008.763-.3,1.7.688,2.141,2.475,1.113,4.127-.242,4.127-3.48q0-46.8-.047-93.6c-.008-2.7.576-3.42,2.765-3.361,6.444.179,12.9.23,19.335-.024,2.551-.1,3.258.672,3.242,3.838-.111,26.463-.052,52.93-.107,79.4,0,2.158.393,2.964,2.32,2.976,1.959.016,2.288-.858,2.276-2.987-.075-12.157.02-24.314-.087-36.471-.02-2.415.493-3.087,2.487-3.051,7.592.147,15.188.044,22.78.072,1.319.007,2.348.127,2.324-2.245-.123-12.693-.115-25.382-.151-38.071q.054-14.75.111-29.506c.2-.6.406-1.2.608-1.8a2.369,2.369,0,0,0,1.089-1.72c.862-.342.985-1.228,1.064-2.149l0-.024c2.058-1.542,2.8-4.279,4.029-6.575.767-.12,1.084-.755,1.239-1.585a1.758,1.758,0,0,0,.791-1.443c3.925-5.375,7.238-11.326,10.81-17.035,2.69-4.291,5.3-8.649,8.351-13.627.21,2.054.33,3.194.445,4.331,0,1.092,0,2.185.008,3.273-.072,1.713-.211,3.421-.211,5.129q-.024,26.543,0,53.077c.008,8.792.08,17.579.123,26.367a10.135,10.135,0,0,0,.084,4.192q-.024,35.874-.036,71.748a19.05,19.05,0,0,0,.254,2.209c.235.243.409.234.481-.175q.048-23.884.1-47.761c.008-2.892.123-5.784.187-8.676,1.522-.028,3.039-.052,4.561-.076a53.415,53.415,0,0,1,6.34.092c2.67.333,3.222-1.065,3.206-4.053-.091-18.8-.055-37.6-.039-56.4,0-6.683-.56-6,4.727-5.9,2.185.04,2.9-.8,2.861-3.516-.131-8.375.008-16.757-.068-25.136-.024-2.368.608-3.254,2.6-3.119,2.281.155,4.577-.063,6.869-.119,5.741.568,5.737.568,5.924,7.537.012.532.087,1.064.131,1.6-.056,4.719-.143,9.439-.155,14.163-.028,8.514-.008,8.514,6.837,8.533h.266c3.52.02,3.564.044,3.572,4.279q.018,15.625,0,31.25c0,5.932-.322,5,4.02,5.065,3.524.052,7.048.084,10.572.124.056,1.013.111,2.03.167,3.043-.052,7.155-.119,14.314-.143,21.469-.024,6.567-.008,6.567,5.53,6,3.138-.123,3.973,1.863,3.6,5.379-.242,2.221-.008,4.509-.051,6.761-.028,1.621.5,2.337,1.871,2.313,3.528-.06,7.056-.092,10.583,0,2.015.055,1.987-1.47,1.983-3.183-.012-9.348.071-18.7-.04-28.044-.032-2.761.564-3.805,2.968-3.651,3.869.247,7.759,0,11.636.1,1.7.04,2.419-.676,2.28-2.8-.111-1.708,0-3.436-.011-5.153-.008-1.295.111-2.316,1.529-2.324,1.359,0,1.617.854,1.593,2.233-.036,1.931.048,3.869-.024,5.8-.063,1.7.56,2.158,1.879,2.253,5.713.4,5.713.453,5.713,7.6,0,19.987.1,39.974-.1,59.957-.032,3.282,1.728,5.614,1.911,8.725C2284.389,1175.783,2286.451,1175.112,2287.647,1175.045Z"/><path class="a" d="M1812.038,1011.777a7.208,7.208,0,0,0,3.639-4.184c.862-3.34-2.352-5.69-5.162-6.6a15.4,15.4,0,0,0-10.485.195,12.064,12.064,0,0,0-4.991,3.862,14.143,14.143,0,0,0-.808,1.242,17.688,17.688,0,0,0-1.742-5.2c-1.051-2.056-2.872-4.254-5.438-4.21-2.375.041-3.956,2.6-4.877,4.414a20.433,20.433,0,0,0-1.687,4.627,10.561,10.561,0,0,0-3.086-4.188,4.616,4.616,0,0,0-3.474-1.286,4.815,4.815,0,0,0-3.389,2.495,9.924,9.924,0,0,0-1.289,5.2c-3.259-1.816-8.79-.12-9.414,3.632Z"/><path class="a" d="M1979.613,987.536a7.2,7.2,0,0,0,3.639-4.184c.862-3.34-2.351-5.69-5.161-6.6a15.4,15.4,0,0,0-10.485.2,12.056,12.056,0,0,0-4.991,3.862,13.647,13.647,0,0,0-.808,1.242,17.7,17.7,0,0,0-1.742-5.194c-1.051-2.057-2.873-4.255-5.439-4.211-2.374.041-3.955,2.6-4.877,4.414a20.48,20.48,0,0,0-1.687,4.627,10.537,10.537,0,0,0-3.086-4.187,4.615,4.615,0,0,0-3.473-1.287,4.816,4.816,0,0,0-3.39,2.495,9.933,9.933,0,0,0-1.289,5.2c-3.259-1.816-8.79-.12-9.413,3.632Z"/><path class="b" d="M1952.859,1243.268H1827.38a2.552,2.552,0,0,1-2.544-2.544h0a2.552,2.552,0,0,1,2.544-2.544h125.479a2.552,2.552,0,0,1,2.544,2.544h0A2.552,2.552,0,0,1,1952.859,1243.268Z"/><path class="c" d="M2087.214,943.241s-26.418,27.052,0,58.392c0,0-8.8,20.795,2.118,17s10.147-7.38,19.228-5.627,18.569,3.733,37.145-7.46,15.661-37.794,15.661-37.794,1.048-19.27-19.882-31.68C2141.484,936.069,2115.818,918.186,2087.214,943.241Z"/><path class="b" d="M2172.149,963.7l-.007-.037c-2.01-9.67-9.116-19.112-19.009-25.257A44.919,44.919,0,0,0,2091.1,953.26a42.942,42.942,0,0,0,4.62,50.489,1.949,1.949,0,0,1,.531,2.041c-.9,4.509-1.676,8.676-2.362,12.736-.3,1.754.022,3.07.945,3.914s2.275,1.047,4.008.587a10.376,10.376,0,0,0,1.562-.59l3.072-1.349c3.192-1.4,6.493-2.848,9.722-4.326a3.23,3.23,0,0,1,2.512-.181,45.1,45.1,0,0,0,21.146,1.4,45.828,45.828,0,0,0,16.5-6.6C2168.781,1001.583,2175.8,983.757,2172.149,963.7Z"/><path class="b" d="M2170.179,1286.552H1915.6a6.177,6.177,0,0,1-5.995-6.311v-3.775a6.177,6.177,0,0,1,5.995-6.311h275.541c.05,0-5.57,5.075-11.12,9.405C2175.1,1283.4,2170.179,1286.552,2170.179,1286.552Z"/><path class="d" d="M2164.284,1167.593c.218-.035.435-.086.653-.122h-1.062C2164.012,1167.505,2164.148,1167.545,2164.284,1167.593Z"/><path class="d" d="M2013.34,1109.7l.064-.018c-.046.011-.1.026-.146.04Z"/><path class="d" d="M2015.623,1101.609l-.064.018-.3.086c-.951.291-2.412.864-3.893,1.3l0,.026c5.5,1.129,11.968,2.747,18.154,4.377C2022.354,1104.176,2016.552,1101.372,2015.623,1101.609Z"/><path class="d" d="M2000.722,1241.493a6.388,6.388,0,0,1,1.8-1.731h-.015l.277-.235v.016l.32-.219c-.037-.033-.018-.079.018-.028l.044-.015c.064-.011.128-.019.19-.033a.217.217,0,0,0,.058-.034l-.042.035.545-.305.017-.015.024-.02-.018.017.276-.133h-.018l.007-.031.02.027-.009,0a.646.646,0,0,0,.374-.111l-.027-.012.034-.019.267-.078h-.014l.007-.026.016.022-.009,0a1.025,1.025,0,0,0,.487-.131,1.294,1.294,0,0,1,.7-.208.089.089,0,0,1,.082.036l.411-.179a.251.251,0,0,1,.122-.054c.13-.03.261-.059.388-.091a1.27,1.27,0,0,0,.663-.124,22.343,22.343,0,0,1,2.18-.707,1.437,1.437,0,0,0,.71-.2c.152-.471.462-.52.87-.313l.635-.243c.147-.581.29-.639.856-.352.205-.08.412-.163.619-.245.1-.559.181-.6.733-.421l.086.026a.266.266,0,0,1,.007-.027.451.451,0,0,1,.566-.169.734.734,0,0,0,.029-.114c.072-.5.335-.569.751-.363l.687-.364c.062-.411.31-.541.708-.448l.591-.354c.017-.446.24-.607.679-.473l.469-.388c.005-.556.12-.644.686-.528l.408-.443c-.093-.469.1-.675.588-.626q.1-.144.193-.29l.02-.015-.005.023c.079-.092.16-.184.24-.275.054-.256.069-.585.3-.7a1.758,1.758,0,0,0,.777-.9c.189-.367.3-.146.42.043l.4.362h0a1.17,1.17,0,0,1,.517-.087h.542l-.8-13.625a9.318,9.318,0,0,1-1.129-.559s-6.45-58.5-6.231-65.294,58.173-12.269,58.173-12.269c.183-.059.364-.111.546-.166a.956.956,0,0,1-.16-.906c.829-2.434,2.66-8.635,2.172-14.673a.967.967,0,0,0-1.544-.7.966.966,0,0,1-1.226-.054c-.557-.505-1.465-1.35-2.527-2.423-1.976,1.025-4.648,2.155-6.858,3.04-1.324.558-2.673,1.082-4.012,1.545l-.07.026,0,0a40.857,40.857,0,0,1-4.183,1.219c-9.367,2.136-40.466-15.282-42.726-14.707l-.064.018-.3.086c-1.034.316-2.671.966-4.28,1.4a17.309,17.309,0,0,0-2.128.939,11.9,11.9,0,0,0-1.561,1.293,18.7,18.7,0,0,1-1.439,1.746,1.585,1.585,0,0,1-.715.43.924.924,0,0,1-.476.058l-.162.44a3.125,3.125,0,0,1-.326.884l-3.588,9.751-.007,0q-4.806,13.316-9.64,26.618c-2.14,5.905-4.215,11.839-6.439,17.7-.784,2.069-.264,3.971.121,5.908,2.576,12.954,6.022,25.657,9.276,38.415.179.705.633,1.4.256,2.191.388-.055.315.28.33.54l1.265,4.611q1.92,6.959,3.845,13.915c.2.711.176,1.538.822,2.037.189.984.382,1.964.567,2.946a1.7,1.7,0,0,0,1.908,1.613A6.2,6.2,0,0,1,2000.722,1241.493Z"/><path class="d" d="M2015.623,1101.609c-.045.011-.1.026-.146.04l.082-.022Z"/><path class="d" d="M2050.36,1249.064l-28.906-.232q-14.11,0-28.22.04C2005.3,1248.856,2028.846,1248.957,2050.36,1249.064Z"/><path class="d" d="M2036.408,1215.654c-.209.148-.419.28-.63.4l-.385,13.53h.667a.905.905,0,0,1,.19.046l.378.238-.038-.013a1.549,1.549,0,0,1,.038,1.556c-.067.137-.144.239-.015.373a.781.781,0,0,1,.157.7,4.533,4.533,0,0,0,0,1.923c.109.412-.108.827-.1,1.256.014,2.064-.012,4.128-.024,6.192a11.729,11.729,0,0,0,0,1.568.739.739,0,0,1,0,.2,1.619,1.619,0,0,0,1.511-.489c.487.191.81-.189,1.135-.445a64.437,64.437,0,0,0,16.5-18.465,42.473,42.473,0,0,0,5.132-14.245c-.113-.464-2.757-11.364-3.109-18.844h-.533s-2.082-20.028,5.56-25.265c-13.8-1.426-24.892-3.574-24.892-3.574C2045.172,1173.914,2036.408,1215.654,2036.408,1215.654Z"/><path class="d" d="M2128.494,1265.491a1.174,1.174,0,0,1,1.054,1.324v0A1.173,1.173,0,0,0,2128.494,1265.491Z"/><path class="e" d="M2011.4,1102.211a17.682,17.682,0,0,0,4.076-.562c.049-.014.1-.029.146-.04.929-.237,6.731,2.567,13.893,5.8,10.791,2.844,20.717,5.72,23.108,6.08,3.069.461,7.7-2.52,11.032-5.082a.96.96,0,0,1,.3-.764c1.327-1.234,5.011-4.709,8.733-8.623-5.352,2.74-14.274,6.93-17.848,6.393-3.983-.6-28.857-8.176-43.835-10.961a16.129,16.129,0,0,1,.071,1.7A44.158,44.158,0,0,1,2011.4,1102.211Z"/><path class="e" d="M2011.366,1102.973l0,.036c1.481-.432,2.942-1.005,3.893-1.3C2014.547,1101.919,2012.914,1102.407,2011.366,1102.973Z"/><path class="f" d="M2015.559,1101.627l-.082.022a17.682,17.682,0,0,1-4.076.562c-.007.259-.019.512-.035.762,1.548-.566,3.181-1.054,3.891-1.26Z"/><path class="f" d="M2015.623,1101.609l-.064.018Z"/><path class="f" d="M2032.118,1229.23a.973.973,0,0,1,.19.047c.125.077.252.157.379.237l-.038-.012c.017.029.03.058.045.087h2.7l.385-13.53a8.416,8.416,0,0,1-3.985,1.174l-.341,12Z"/><path class="g" d="M2035.952,1192.551h0c-1.287,11.913-3.486,22.387-3.486,22.387-.2.146-.412.276-.619.4l-.054,1.9a8.416,8.416,0,0,0,3.985-1.174c.211-.125.421-.257.63-.4,0,0,8.764-41.74,1.534-53.352,0,0,11.093,2.148,24.892,3.574q.246-.17.505-.318c-16.057-1.588-29.339-3.973-29.339-3.973C2039.916,1171.116,2035.952,1192.551,2035.952,1192.551Z"/><path class="h" d="M2036.637,1241.862c.012-2.064.038-4.128.024-6.192,0-.429.214-.844.1-1.256a4.533,4.533,0,0,1,0-1.923.781.781,0,0,0-.157-.7c-.129-.134-.052-.236.015-.373a1.549,1.549,0,0,0-.038-1.556l.038.013-.378-.238a.905.905,0,0,0-.19-.046h-3.366a1.552,1.552,0,0,1-.008,1.469c-.066.137-.143.238-.014.373a.781.781,0,0,1,.156.7,4.556,4.556,0,0,0,0,1.924c.11.412-.108.826-.1,1.256.015,2.063-.012,4.127-.024,6.191a11.909,11.909,0,0,0,0,1.569.818.818,0,0,1-.111.543q1.785-.006,3.57-.005c.16,0,.323.011.486.019a.739.739,0,0,0,0-.2A11.729,11.729,0,0,1,2036.637,1241.862Z"/><path class="e" d="M2031.452,1229.23l.341-12,.054-1.9a9.606,9.606,0,0,1-8.673.27l.8,13.625Q2027.714,1229.227,2031.452,1229.23Z"/><path class="i" d="M1967.317,1240.617c-1.388-2.558-2.2-5.532-4.338-7.575a83.648,83.648,0,0,0-28.13-10.488c-4.673-.827-9.388-1.195-14.1-1.616a3.423,3.423,0,0,0-1.151.063c-12.349,14.322-11.229,35.17,3.267,47.761,1.022.887,1.9,2.146,3.5,2.141,0,.5.351.7.732.88a5.312,5.312,0,0,0,2.528,1.266l1.079.551c.183.445.641.467,1,.613a34.6,34.6,0,0,0,17.147,2.329c12.4-1.343,23.446-10.606,27.48-22.3a3.747,3.747,0,0,0-.5-.692A68.241,68.241,0,0,1,1967.317,1240.617Zm-22.562,19.136a16.5,16.5,0,1,1,16.325-16.528A16.523,16.523,0,0,1,1944.755,1259.753Z"/><path class="i" d="M2144.3,1233.579l-.4.011a15.153,15.153,0,0,1,2.822,6.333,16.5,16.5,0,0,1-30.471,11.558,16.225,16.225,0,0,1,.3-16.834c-.064.009-.128.017-.192.027-1.133.163-2.266.338-3.4.505a18.657,18.657,0,0,0-5.009,1.4,13.331,13.331,0,0,0-7.3,8.484c-1.324.393-1.246,1.814-1.7,2.831-.338.75-.586,1.55-.873,2.327-.035.16-.072.319-.107.479q3.608,16.755,21.049,24.071l2.757.744a20.711,20.711,0,0,0,5.367,1.087c20.429,2.392,38.517-15.146,36.866-35.674a38.184,38.184,0,0,0-1.359-7.179C2156.54,1233.421,2150.424,1233.325,2144.3,1233.579Zm-14.755,33.236a1.174,1.174,0,0,0-1.054-1.324,1.173,1.173,0,0,1,1.054,1.322Z"/><path class="j" d="M2116.256,1251.481a16.5,16.5,0,0,0,30.471-11.558,15.153,15.153,0,0,0-2.822-6.333l-17.295.47a45.984,45.984,0,0,0-10.055.587A16.225,16.225,0,0,0,2116.256,1251.481Zm14.33-15.272a7.05,7.05,0,1,1-.139,14.1,7.05,7.05,0,0,1,.139-14.1Z"/><path class="j" d="M1944.481,1226.747a16.5,16.5,0,1,0,.274,33.006,16.5,16.5,0,0,0-.274-33.006Zm.108,23.561a7.055,7.055,0,0,1-.035-14.107,7.053,7.053,0,0,1,.035,14.107Z"/><path class="k" d="M2130.447,1250.308a7.05,7.05,0,1,0-6.918-7.112A7.156,7.156,0,0,0,2130.447,1250.308Z"/><path class="k" d="M1944.554,1236.2a7.055,7.055,0,0,0,.035,14.107,7.053,7.053,0,0,0-.035-14.107Z"/><path class="l" d="M2164.711,1208.367c.384,1.148.786,2.287,1.2,3.423q-.665-1.706-1.328-3.412c-.751.067-1.5.144-2.253.144-20.355.012-92.751,1.474-101.405,1.479l0-.016a42.473,42.473,0,0,1-5.132,14.245,64.437,64.437,0,0,1-16.5,18.465c-.325.256-.648.636-1.135.445a1.619,1.619,0,0,1-1.511.489c-.163-.008-.326-.019-.486-.019q-1.785,0-3.57.005a1.12,1.12,0,0,1-.686.524,3.107,3.107,0,0,1-.753.07q-11.814,0-23.629-.011c-1.9,0-3.8-.015-5.7-.029-.67-.005-1.1-.32-1.142-.888l0-.052a1.7,1.7,0,0,1-1.908-1.613c-.185-.982-.378-1.962-.567-2.946-.646-.5-.625-1.326-.822-2.037q-1.932-6.954-3.845-13.915l-1.265-4.611c-.015-.26.058-.6-.33-.54.377-.791-.077-1.486-.256-2.191-3.254-12.758-6.7-25.461-9.276-38.415-.385-1.937-.9-3.839-.121-5.908,2.224-5.866,4.3-11.8,6.439-17.7q4.824-13.306,9.64-26.618l.007,0,3.588-9.751a3.125,3.125,0,0,0,.326-.884l.162-.44c-.737-.142-.2-1.729-.2-1.729.024-.029.044-.058.067-.087a10,10,0,0,1-.848.92l-3.354.218a7.331,7.331,0,0,1-1.8-1.135c.06.057.1.088.1.088-.7.281-1.355-.117-1.857-.91l-4.6,8.876c-1.477,3.48-3.371,6.748-5.1,10.095q-5,9.649-10.021,19.288-4.9,9.461-9.778,18.934a2.512,2.512,0,0,0-.221,2.005c2.421,7.628,4.863,15.247,7.236,22.893,2.287,7.368,4.3,14.845,6.812,22.119,1.765,5.12,3.117,10.382,4.9,15.492,1.579,4.536,2.979,9.152,4.308,13.784.51,1.78,1.285,2.372,3.006,2.367l2.165-.005q14.11-.039,28.22-.04l28.906.232c22.378.111,42.549.229,45.282.228.912,0,1.874-.169,2.435.93.287-.777.535-1.577.873-2.327.458-1.017.38-2.438,1.7-2.831a13.331,13.331,0,0,1,7.3-8.484,18.657,18.657,0,0,1,5.009-1.4c1.134-.167,2.267-.342,3.4-.505.064-.01.128-.018.192-.027a45.984,45.984,0,0,1,10.055-.587l17.295-.47.4-.011c6.121-.254,12.237-.158,18.347.171q2.565.138,5.129.325c2.991.094,4.146-.76,4.7-3.6a7.543,7.543,0,0,0-.388-4.29c-.966-2.468-1.859-4.97-2.783-7.458-1.472-3.448-2.935-6.9-4.333-10.384Z"/><path class="m" d="M2164.711,1208.367l-.133.011q.663,1.705,1.328,3.412C2165.5,1210.654,2165.095,1209.515,2164.711,1208.367Z"/><path class="k" d="M1994.762,1111.532a4.48,4.48,0,0,1-.151-1.719,7.608,7.608,0,0,1,.248-1.286l-.014.029A3.985,3.985,0,0,0,1994.762,1111.532Z"/><path class="k" d="M2095.642,1249.292c-2.733,0-22.9-.117-45.282-.228-21.514-.107-45.065-.208-57.126-.192l-2.165.005c-1.721.005-2.5-.587-3.006-2.367-1.329-4.632-2.729-9.248-4.308-13.784-1.778-5.11-3.13-10.372-4.9-15.492-2.509-7.274-4.525-14.751-6.812-22.119-2.373-7.646-4.815-15.265-7.236-22.893a2.512,2.512,0,0,1,.221-2.005q4.887-9.468,9.778-18.934,5-9.649,10.021-19.288c1.734-3.347,3.628-6.615,5.1-10.095l4.6-8.876a8.3,8.3,0,0,1-.948-4.705l-5.983-.162c-.033-.01-.065-.023-.1-.031-.491-.028-.769-.046-.769-.046-1.445.127-2.905.047-4.358.056.126.793-.376,1.3-.73,1.858q-17.6,27.766-35.238,55.5a11.588,11.588,0,0,0-1.858,6.266c-.1,5.468,1.6,10.489,3.116,15.562h0c.123.43.243.86.365,1.29q.546,1.92,1.085,3.841c.447,1.592.9,3.183,1.363,4.767q.483,1.646.994,3.278A281.531,281.531,0,0,0,1963,1231.835c.207.459.4.811-.021,1.207,2.141,2.043,2.95,5.017,4.338,7.575a68.241,68.241,0,0,0,8.524,12.928,3.747,3.747,0,0,1,.5.692,2.568,2.568,0,0,1,.3.894,2.644,2.644,0,0,1,1.424.942,18.9,18.9,0,0,0,14.331,5.777c19.606-.1,39.213.03,58.82.043,14.3.01,28.6-.059,42.9,0,1.544.007,2.127-.448,2.216-2.125a55.634,55.634,0,0,1,1.647-9.065c.035-.16.072-.319.107-.479C2097.516,1249.123,2096.554,1249.292,2095.642,1249.292Z"/><path class="k" d="M2149.087,1191.159q-45.639-.015-91.28-.018c.352,7.48,3,18.38,3.109,18.844l0,.016c8.654-.005,81.05-1.467,101.405-1.479.751,0,1.5-.077,2.253-.144l.133-.011.269-.023c-.67-1.669-1.329-3.344-1.96-5.032-.237-.636-.467-1.275-.7-1.914-.41-1.137-.813-2.279-1.2-3.429l.176,0c-.331-.9-.658-1.808-.973-2.717-.479-1.38-1.092-2.7-1.67-4.035l-.439.009C2155.176,1191.2,2152.132,1191.16,2149.087,1191.159Z"/><path class="l" d="M2166.7,1173.752a13.507,13.507,0,0,0-1.644-4.929c-.246-.432-.506-.839-.775-1.23-.136-.048-.272-.088-.409-.122q-8.184,0-16.37,0c-.516,0-1.032.079-1.548.121a7.681,7.681,0,0,0-2.635-.214c-7.5-.01-14.992,0-22.489-.019-.6,0-1.265.244-1.764-.375,0-.113,0-.226,0-.339-3.455-.115-9.066-.3-15.427-.529a84.927,84.927,0,0,1-16.728.825h0c-7.737-.057-15.966-.63-23.574-1.383q-.26.148-.505.318c-7.642,5.237-5.56,25.264-5.56,25.265h.533q45.641.008,91.28.018c3.045,0,6.089.042,9.133.065l.439-.009c.629-.013,1.258-.028,1.886-.037,5.32-.077,8.581-3.549,8.7-9.331a48.967,48.967,0,0,0-.222-8.1h0l0-.012-2.316.012Z"/><path class="k" d="M1920.75,1220.938c4.711.421,9.426.789,14.1,1.616a83.648,83.648,0,0,1,28.13,10.488c.421-.4.228-.748.021-1.207a281.531,281.531,0,0,1-11.522-31.336q-.513-1.632-.994-3.278c-.466-1.584-.916-3.175-1.363-4.767q-.54-1.922-1.085-3.841c-.122-.43-.242-.86-.365-1.29h0c.191,1.695-.92,1.387-1.785,1.35-7.885-.338-15.095,2.095-21.8,6.477-6.229,4.074-11.219,9.473-13.908,16.992-1.585,4.435.171,7.405,4.415,8.315,1.437.308,2.973,0,4.318.837a2.3,2.3,0,0,1,.683-.293A3.423,3.423,0,0,1,1920.75,1220.938Z"/><path class="l" d="M2120.833,1167.36c7.5.018,14.993.009,22.489.019a7.681,7.681,0,0,1,2.635.214c.516-.042,1.032-.121,1.548-.121q8.186-.006,16.37,0h1.062a2.523,2.523,0,0,1,.422-.043q6.053-.008,12.106,0a3.307,3.307,0,0,0,.106-.625q.014-26.528.035-53.056c0-1.1-.482-1.152-1.249-1.151q-28.027.018-56.055-.016c-1.043,0-1.308.356-1.3,1.457.036,5.711.021,11.423.023,17.134l-.023,0,.056,15.718c-.107,6.585-.027,13.17.01,19.755,0,.113,0,.226,0,.339C2119.568,1167.6,2120.237,1167.358,2120.833,1167.36Zm1.064-39.569.035-.01q0-.927,0-1.855v-.005q0-4.28-.034-8.56c-.011-1.239.268-1.681,1.473-1.678q24.834.06,49.669,0c1.308,0,1.7.486,1.7,1.89q-.053,22.342,0,44.684c0,1.33-.311,1.752-1.568,1.749q-24.834-.066-49.669,0c-1.376.005-1.615-.538-1.6-1.882.037-5.26.035-10.521.032-15.782h0v-1.334l-.033.026Z"/><path class="k" d="M1998.268,1105.126a4.012,4.012,0,0,1,2.519.09A3.409,3.409,0,0,0,1998.268,1105.126Z"/><path class="k" d="M1986.739,1108.08s.278.018.769.046c.035.008.067.021.1.031l5.983.162c.184-2.77,1.527-5.695,4.859-6.6,2.058-.561,6.908.087,12.912,1.32l0-.026,0-.036c.016-.25.028-.5.035-.762a44.158,44.158,0,0,0-.322-6.052,16.129,16.129,0,0,0-.071-1.7,11.493,11.493,0,0,0-.571-2.685h0a9.055,9.055,0,0,0-2.428-3.713,32.871,32.871,0,0,0-5.44,4.257c-.647.543-1.405,1.526-2.3.205-.569-.834-.886-1.358.145-2.22,1.6-1.337,3.51-2.286,4.676-4.2a3.787,3.787,0,0,0-2.987-.9c-6.715-.029-13.43.016-20.144-.051-1.42-.014-1.8.558-1.788,2.033.056,6.275.081,12.552-.009,18.827-.028,1.917.559,2.573,2.223,2.132C1983.834,1108.127,1985.294,1108.207,1986.739,1108.08Z"/><path class="k" d="M2186.161,1167.425q-4.348,0-8.7,0-6.053,0-12.106,0a2.523,2.523,0,0,0-.422.043c-.218.036-.435.087-.653.122.269.391.529.8.775,1.23a13.507,13.507,0,0,1,1.644,4.929h0l2.316-.012q7.194-.04,14.387-.076C2186.3,1173.651,2186.3,1173.661,2186.161,1167.425Z"/><path class="l" d="M2162.323,1201.4c.23.639.46,1.278.7,1.914.631,1.688,1.29,3.363,1.96,5.032,1.4,3.484,2.861,6.936,4.333,10.384a5.3,5.3,0,0,0,2.829-5.025c.055-3.331.086-6.666-.01-9.994s-2.286-5.661-5.284-5.762c-1.846-.063-3.7,0-5.546.02l-.176,0C2161.51,1199.119,2161.913,1200.261,2162.323,1201.4Z"/><path class="l" d="M2000.41,1090.3c-1.031.862-.714,1.386-.145,2.22.9,1.321,1.657.338,2.3-.205a32.871,32.871,0,0,1,5.44-4.257,12.644,12.644,0,0,1,3.556-3.211,4.246,4.246,0,0,0,.379-.316v-3.6c-.625.352-1.079.92-1.637,1.3-1.787,1.212-3.146,3.122-5.221,3.866C2003.92,1088.013,2002.007,1088.962,2000.41,1090.3Z"/><path class="k" d="M2121.93,1146.189v.159h0c0,5.261.005,10.522-.032,15.782-.01,1.344.229,1.887,1.6,1.882q24.834-.076,49.669,0c1.257,0,1.571-.419,1.568-1.749q-.057-22.341,0-44.684c0-1.4-.388-1.893-1.7-1.89q-24.834.055-49.669,0c-1.205,0-1.484.439-1.473,1.678q.041,4.28.034,8.56v.005q0,.927,0,1.855l-.035.01v17.249l.033-.026Z"/><path class="n" d="M2003.187,1107.571c.035.065.067.132.1.193-.04-.083-.084-.161-.127-.24Z"/><path class="l" d="M2003.49,1111.716l.019-.051c.043-.114.08-.228.113-.341l.014-.046a5.449,5.449,0,0,0-.449-3.707l-.047-.088a5.407,5.407,0,0,0-2.353-2.267,4.012,4.012,0,0,0-2.519-.09,6.3,6.3,0,0,0-3.409,3.4,7.608,7.608,0,0,0-.248,1.286,4.48,4.48,0,0,0,.151,1.719,6.216,6.216,0,0,0,1.537,2.314,7.331,7.331,0,0,0,1.8,1.135l3.354-.218a10,10,0,0,0,.848-.92c.125-.155.239-.311.344-.468A12.3,12.3,0,0,0,2003.49,1111.716Z"/><path class="l" d="M2011.944,1087.306a1.183,1.183,0,0,0,1.121,1.229h0a1.182,1.182,0,0,0,1.121-1.229V1076.3a1.182,1.182,0,0,0-1.121-1.229h0a1.183,1.183,0,0,0-1.121,1.229v11.006Z"/><path class="e" d="M2095.475,1079.071c.028-.027.058-.052.088-.076a67.486,67.486,0,0,1-.74-11.9,75.7,75.7,0,0,1-8.41,1.86c.274,2.123.818,7.529-.226,10.606h0S2090.573,1084.026,2095.475,1079.071Z"/><path class="e" d="M2079.024,1068.542c-4.674-3.275-2.454-14.178-2.359-16.3.088-1.948-1.247-4.661-6.487-5.926a16.693,16.693,0,0,0-.238,5.361c.573,3.389-4.648,4.628-3.682,6.7s4.193.88,5.028,2.6.546,8.666,4.011,9.539c1.4.353,4.592-.316,7.889-1.236A7.214,7.214,0,0,1,2079.024,1068.542Z"/><path class="o" d="M2106.785,1063.284l1.228-3.881,0,0c-.231.662-.469,1.321-.724,1.974a.7.7,0,0,1-.432.433c-1.892.733-3.828,1.337-5.761,1.951q-3.963,1.258-8,2.272c-2.62.663-5.251,1.279-7.908,1.775a7.692,7.692,0,0,1-4.622-.433,4.946,4.946,0,0,1-2.887-3.534,12.474,12.474,0,0,1-.052-4.472c.183-1.6.5-3.184.555-4.8a11.646,11.646,0,0,0-.388-3.726,6.4,6.4,0,0,0-3.356-4.048,25.053,25.053,0,0,0-5-1.794c-1.675-.45-3.369-.817-5.077-1.114-.131-.023-.262-.037-.393-.055,0,0-1.121,1.219,4.682,2.173.545.09,1.052.194,1.529.309,5.24,1.265,6.575,3.978,6.487,5.926-.095,2.125-2.315,13.028,2.359,16.3a7.214,7.214,0,0,0,4.162.735,29.282,29.282,0,0,0,3.227-.322,75.7,75.7,0,0,0,8.41-1.86C2101.113,1065.38,2106.785,1063.284,2106.785,1063.284Z"/><path class="k" d="M2069.437,1045a25.053,25.053,0,0,1,5,1.794,6.4,6.4,0,0,1,3.356,4.048,11.646,11.646,0,0,1,.388,3.726c-.059,1.614-.372,3.2-.555,4.8a12.474,12.474,0,0,0,.052,4.472,4.946,4.946,0,0,0,2.887,3.534,7.692,7.692,0,0,0,4.622.433c2.657-.5,5.288-1.112,7.908-1.775q4.031-1.019,8-2.272c1.933-.614,3.869-1.218,5.761-1.951a.7.7,0,0,0,.432-.433c.255-.653.493-1.312.724-1.974.143-.407.285-.814.418-1.224.363-1.116.644-2.254.951-3.386.012-.08.019-.162.036-.241a30.262,30.262,0,0,0,.745-7.312,20.334,20.334,0,0,0-.975-5.8,19.59,19.59,0,0,0-8.491-10.661,23.351,23.351,0,0,0-6.839-2.826,29.044,29.044,0,0,0-6.867-.839,29.929,29.929,0,0,0-7.183.828,21.219,21.219,0,0,0-12.182,7.876,19.51,19.51,0,0,0-2.9,5.188,12.44,12.44,0,0,0-.759,2.827c.131.018.262.032.393.055C2066.068,1044.183,2067.762,1044.55,2069.437,1045Zm12.284,15.965a2.739,2.739,0,1,1-2.39,3.054A2.728,2.728,0,0,1,2081.721,1060.965Z"/><path class="l" d="M2082.369,1066.405a2.739,2.739,0,1,0-3.038-2.386A2.746,2.746,0,0,0,2082.369,1066.405Zm-.456-3.871a1.155,1.155,0,0,1,.277,2.293,1.155,1.155,0,1,1-.277-2.293Z"/><path class="k" d="M2082.19,1064.827a1.155,1.155,0,1,0-1.289-1.024A1.15,1.15,0,0,0,2082.19,1064.827Z"/><path class="l" d="M2108.994,1164.85a5.02,5.02,0,0,0,2.331-1.4,14.7,14.7,0,0,1-4.147,1.852C2107.8,1165.158,2108.41,1165.011,2108.994,1164.85Z"/><path class="l" d="M2112.389,1161.043a3.247,3.247,0,0,1,.1.367c.022-.072.045-.143.063-.215a.961.961,0,0,1-.1-.089Z"/><path class="l" d="M2094.035,1153.369c-.214-7.176-17.547-15.217-18.325-15.574-.2-.041-.4-.088-.6-.125a.948.948,0,0,1-.576-.352c-.182.055-.363.107-.546.166,0,0-57.953,5.477-58.173,12.269s6.231,65.294,6.231,65.294a9.318,9.318,0,0,0,1.129.559,9.606,9.606,0,0,0,8.673-.27c.207-.123.414-.253.619-.4,0,0,2.2-10.474,3.486-22.387.417-20.2-5.786-33.813-5.786-33.813l3.834,2.848s13.282,2.385,29.339,3.973c7.608.753,15.837,1.326,23.574,1.383C2086.94,1166.918,2094.253,1160.695,2094.035,1153.369Z"/><path class="l" d="M2075.71,1137.8c.778.357,18.111,8.4,18.325,15.574.218,7.326-7.095,13.549-7.122,13.572h0a84.927,84.927,0,0,0,16.728-.825,32.578,32.578,0,0,0,3.538-.818,14.7,14.7,0,0,0,4.147-1.852,7.11,7.11,0,0,0,.9-.727,1.313,1.313,0,0,0,.272-1.31,3.247,3.247,0,0,0-.1-.367C2107.194,1155.842,2091.226,1140.966,2075.71,1137.8Z"/><path class="e" d="M2013.038,1109.789c-.769.223-2.625.778-4.28,1.4C2010.367,1110.755,2012,1110.1,2013.038,1109.789Z"/><path class="e" d="M2003.63,1115.171a2.157,2.157,0,0,1-.715.43A1.585,1.585,0,0,0,2003.63,1115.171Z"/><path class="e" d="M2005.069,1113.425a11.9,11.9,0,0,1,1.561-1.293h0A5.549,5.549,0,0,0,2005.069,1113.425Z"/><path class="e" d="M2064.39,1121.606c-2.04.817-3.678,1.422-4.012,1.545C2061.717,1122.688,2063.066,1122.164,2064.39,1121.606Z"/><path class="e" d="M1994.762,1111.532a3.985,3.985,0,0,1,.083-2.976l.014-.029a6.3,6.3,0,0,1,3.409-3.4,3.409,3.409,0,0,1,2.519.09,5.407,5.407,0,0,1,2.353,2.267c-.021-.042-.045-.08-.065-.124,0,0,.035.062.088.165.043.079.087.157.127.24,2.28,3.832,8.915,2.241,9.968,1.961.049-.014.1-.029.146-.04,2.26-.575,33.359,16.843,42.726,14.707a40.857,40.857,0,0,0,4.183-1.219c6.362-3.9,3.75-13.785,3.75-13.785l.01.005c-.108-.2-.22-.4-.32-.606a.983.983,0,0,1-.1-.377c-3.329,2.562-7.963,5.543-11.032,5.082-2.391-.36-12.317-3.236-23.108-6.08-6.186-1.63-12.654-3.248-18.154-4.377-6-1.233-10.854-1.881-12.912-1.32-3.332.909-4.675,3.834-4.859,6.6a8.3,8.3,0,0,0,.948,4.705c.5.793,1.154,1.191,1.857.91,0,0-.037-.031-.1-.088A6.216,6.216,0,0,1,1994.762,1111.532Z"/><path class="e" d="M2003.5,1111.7l.011-.032-.019.051Z"/><path class="e" d="M2002.3,1113.843c-.023.029-.043.058-.067.087a3.943,3.943,0,0,0,.411-.555C2002.542,1113.532,2002.428,1113.688,2002.3,1113.843Z"/><path class="e" d="M2060.313,1123.173l0,0,.07-.026c.334-.123,1.972-.728,4.012-1.545,2.21-.885,4.882-2.015,6.858-3.04a43.423,43.423,0,0,1-7.175-9.173l-.01-.005S2066.675,1119.271,2060.313,1123.173Z"/><path class="f" d="M2002.915,1115.6a2.157,2.157,0,0,0,.715-.43,18.7,18.7,0,0,0,1.439-1.746,5.549,5.549,0,0,1,1.559-1.293h0a17.309,17.309,0,0,1,2.128-.939c1.655-.626,3.511-1.181,4.28-1.4l.3-.086-.082.022c-1.053.28-7.688,1.871-9.968-1.961-.036-.061-.068-.128-.1-.193a5.449,5.449,0,0,1,.449,3.707l-.014.046c-.033.113-.07.227-.113.341l-.011.032-.008.019a12.3,12.3,0,0,1-.843,1.659,3.943,3.943,0,0,1-.411.555s-.534,1.587.2,1.729A.924.924,0,0,0,2002.915,1115.6Z"/><path class="f" d="M2013.4,1109.685l-.064.018Z"/><path class="f" d="M2003.075,1107.359c.02.044.044.082.065.124l.047.088-.024-.047C2003.11,1107.421,2003.075,1107.359,2003.075,1107.359Z"/><path class="g" d="M2032.694,1243.072a11.909,11.909,0,0,1,0-1.569c.012-2.064.039-4.128.024-6.191,0-.43.215-.844.1-1.256a4.556,4.556,0,0,1,0-1.924.781.781,0,0,0-.156-.7c-.129-.135-.052-.236.014-.373a1.552,1.552,0,0,0,.008-1.469c-.015-.029-.028-.058-.045-.087l.038.012c-.127-.08-.254-.16-.379-.237a.973.973,0,0,0-.19-.047h-.666q-3.736,0-7.474,0h-.542a1.17,1.17,0,0,0-.517.087h0l-.4-.362c-.123-.189-.231-.41-.42-.043a1.758,1.758,0,0,1-.777.9c-.236.114-.251.443-.3.7-.08.091-.161.183-.24.275l.005-.023-.02.015q-.1.146-.193.29c-.483-.049-.681.157-.588.626l-.408.443c-.566-.116-.681-.028-.686.528l-.469.388c-.439-.134-.662.027-.679.473l-.591.354c-.4-.093-.646.037-.708.448l-.687.364c-.416-.206-.679-.136-.751.363a.734.734,0,0,1-.029.114.451.451,0,0,0-.566.169.266.266,0,0,0-.007.027l-.086-.026c-.552-.178-.634-.138-.733.421-.207.082-.414.165-.619.245-.566-.287-.709-.229-.856.352l-.635.243c-.408-.207-.718-.158-.87.313a1.437,1.437,0,0,1-.71.2,22.343,22.343,0,0,0-2.18.707,1.27,1.27,0,0,1-.663.124c-.127.032-.258.061-.388.091a.251.251,0,0,0-.122.054l-.411.179a.089.089,0,0,0-.082-.036,1.294,1.294,0,0,0-.7.208,1.025,1.025,0,0,1-.487.131l-.267.078-.034.019.027.012a.646.646,0,0,1-.374.111l-.276.133.018-.017-.024.02-.017.015-.545.305.042-.035a.217.217,0,0,1-.058.034c-.062.014-.126.022-.19.033l-.044.015c-.036-.051-.055-.005-.018.028l-.32.219v-.016l-.277.235h.015a6.388,6.388,0,0,0-1.8,1.731,6.2,6.2,0,0,0-.055,1.736l0,.052c.038.568.472.883,1.142.888,1.9.014,3.8.027,5.7.029q11.814.01,23.629.011a3.107,3.107,0,0,0,.753-.07,1.12,1.12,0,0,0,.686-.524A.818.818,0,0,0,2032.694,1243.072Z"/><path class="g" d="M2004.858,1238.548l-.007.026h.014l.009,0Z"/><path class="g" d="M2004.206,1238.762l-.007.031h.018l.009,0Z"/><path class="k" d="M2063.958,1107.646a.96.96,0,0,0-.3.764.983.983,0,0,0,.1.377c.1.2.212.4.32.606a43.423,43.423,0,0,0,7.175,9.173c1.062,1.073,1.97,1.918,2.527,2.423a.966.966,0,0,0,1.226.054.967.967,0,0,1,1.544.7c.488,6.038-1.343,12.239-2.172,14.673a.972.972,0,0,0,.736,1.258c.2.037.4.084.6.125,15.516,3.171,31.484,18.047,36.679,23.248l.064.063a.965.965,0,0,0,1.648-.7c-1.073-58.586-15.114-79.1-15.871-80.162a.68.68,0,0,1-.062-.1c-.926-1.79-2.058-1.44-2.458-1.24a.8.8,0,0,0-.147.1c-.03.024-.06.049-.088.076-4.9,4.955-9.288.49-9.288.49h0c-.4-1.424-4.34,7.775-4.34,7.775-1.311,3-5.255,7.583-9.156,11.687C2068.969,1102.937,2065.285,1106.412,2063.958,1107.646Zm30.049-3.22c-6,15.776-17.976,25.579-17.51,22.173a22.477,22.477,0,0,0-.155-6.562Z"/><path class="p" d="M2076.5,1126.6c-.466,3.406,11.512-6.4,17.51-22.173l-17.665,15.611A22.477,22.477,0,0,1,2076.5,1126.6Z"/><path class="g" d="M2034,1161.585l-3.834-2.848s6.2,13.618,5.786,33.813h0S2039.916,1171.116,2034,1161.585Z"/><path class="b" d="M2058.733,1015.584a6.814,6.814,0,0,0-.358-1.034l-.828-2.037c-.859-2.116-1.748-4.3-2.658-6.447a2.121,2.121,0,0,1-.072-1.649,29.559,29.559,0,0,0,1.3-13.826,30,30,0,0,0-4.024-10.928c-6.139-10.28-17.688-15.2-30.894-13.174l-.024,0c-6.371,1.141-12.685,5.625-16.89,11.994a29.434,29.434,0,0,0,8.6,40.9,28.139,28.139,0,0,0,33.156-2.109,1.276,1.276,0,0,1,1.347-.311c2.937.674,5.652,1.256,8.3,1.778a2.363,2.363,0,0,0,3.038-3.162Z"/><path class="k" d="M2060.32,1010.531a7.132,7.132,0,0,0-.37-1.067l-.855-2.1c-.887-2.186-1.8-4.445-2.743-6.656a2.183,2.183,0,0,1-.075-1.7,30.533,30.533,0,0,0,1.344-14.275,31,31,0,0,0-4.154-11.283c-6.339-10.613-18.263-15.7-31.9-13.6l-.026,0c-6.577,1.178-13.1,5.807-17.438,12.382a30.392,30.392,0,0,0,8.884,42.23,29.052,29.052,0,0,0,34.233-2.178,1.32,1.32,0,0,1,1.391-.321c3.033.7,5.836,1.3,8.569,1.836a2.44,2.44,0,0,0,3.137-3.265Zm-1.666,1.866a2.026,2.026,0,0,1-1.2.033c-2.723-.538-5.512-1.136-8.528-1.828a2.656,2.656,0,0,0-2.6.615,27.651,27.651,0,0,1-32.58,2.072A29,29,0,0,1,2005.269,973c4.132-6.258,10.3-10.661,16.508-11.776,13.065-2.006,24.458,2.832,30.494,12.937a28.409,28.409,0,0,1,2.682,24.408,3.562,3.562,0,0,0-.172,1.7,4.041,4.041,0,0,0,.288.982c.932,2.194,1.844,4.44,2.726,6.613l.877,2.157a5.644,5.644,0,0,1,.291.829c.029.123.049.23.063.325a2.492,2.492,0,0,1,.032.534l.145.433Z"/><path class="c" d="M2059.026,1011.173c-.014-.095-.034-.2-.063-.325a5.644,5.644,0,0,0-.291-.829l-.877-2.157c-.882-2.173-1.794-4.419-2.726-6.613a4.041,4.041,0,0,1-.288-.982,3.562,3.562,0,0,1,.172-1.7,28.409,28.409,0,0,0-2.682-24.408c-6.036-10.105-17.429-14.943-30.494-12.937-6.2,1.115-12.376,5.518-16.508,11.776a29,29,0,0,0,8.476,40.292,27.651,27.651,0,0,0,32.58-2.072,2.656,2.656,0,0,1,2.6-.615c3.016.692,5.8,1.29,8.528,1.828a2.026,2.026,0,0,0,1.2-.033l.549-.257-.145-.433A2.492,2.492,0,0,0,2059.026,1011.173Z"/><path class="k" d="M2028.123,1008.918c-3.319-.042-7.54-1.736-11.093-5.011a18.612,18.612,0,0,1-1.021-26.21,18.135,18.135,0,0,1,13.66-6.03,17.786,17.786,0,0,1,12.031,4.345,18.229,18.229,0,0,1,6.654,14.307C2048.391,1000.582,2040,1008.988,2028.123,1008.918Zm1.526-3.769a14.841,14.841,0,1,0-14.748-15.036A14.845,14.845,0,0,0,2029.649,1005.149Z"/><path class="k" d="M2031.886,991.308c-.05.017-.069.062-.093.1a2.263,2.263,0,0,1-2.388,1.2,2.208,2.208,0,0,1-1.742-1.257,2.319,2.319,0,0,1,.6-2.841,2.139,2.139,0,0,1,.654-.374.507.507,0,0,0,.2-.11,3.4,3.4,0,0,1,1.227,0c.21.116.443.179.645.317a2.292,2.292,0,0,1,.711.726.238.238,0,0,0,.144.127.28.28,0,0,0,.048.2,2.22,2.22,0,0,1,.175.905A2.929,2.929,0,0,1,2031.886,991.308Z"/><path class="l" d="M2030.351,988.032a3.4,3.4,0,0,0-1.227,0q0-2.98,0-5.959c0-.446-.006-.891,0-1.337a.62.62,0,0,1,1.232-.121,1.528,1.528,0,0,1,.012.234q0,3.477,0,6.953C2030.368,987.877,2030.357,987.954,2030.351,988.032Z"/><path class="l" d="M2031.886,991.308a2.929,2.929,0,0,0,.188-1,2.22,2.22,0,0,0-.175-.905.28.28,0,0,1-.048-.2c1.084,0,2.168,0,3.252,0a.977.977,0,0,1,1.006,1.033.994.994,0,0,1-.488.956.88.88,0,0,1-.448.12C2034.078,991.312,2032.982,991.309,2031.886,991.308Z"/><path class="l" d="M2017.585,983.612a.911.911,0,0,1,.315-.5.358.358,0,0,1,.408,0c.639.369,1.28.736,1.918,1.107a.379.379,0,0,1,.159.484,1.572,1.572,0,0,1-.157.283.371.371,0,0,1-.519.13c-.648-.367-1.291-.741-1.934-1.115A.389.389,0,0,1,2017.585,983.612Z"/><path class="l" d="M2036.4,1002.465a.366.366,0,0,1-.351-.193c-.369-.634-.74-1.267-1.1-1.9a.391.391,0,0,1,.161-.572,1.653,1.653,0,0,1,.239-.126.378.378,0,0,1,.486.154q.56.957,1.111,1.92a.38.38,0,0,1-.145.546C2036.674,1002.363,2036.559,1002.476,2036.4,1002.465Z"/><path class="l" d="M2023.1,978.154a.38.38,0,0,1,.347.214q.539.929,1.072,1.859a.4.4,0,0,1-.15.6,1.552,1.552,0,0,1-.238.126.38.38,0,0,1-.485-.161q-.558-.958-1.108-1.922a.375.375,0,0,1,.134-.532A.771.771,0,0,1,2023.1,978.154Z"/><path class="l" d="M2041.9,996.985a.837.837,0,0,1-.321.526c-.181.126-.349.036-.518-.064-.585-.345-1.175-.682-1.764-1.021a.391.391,0,0,1-.173-.565,1.751,1.751,0,0,1,.1-.19.39.39,0,0,1,.56-.158c.649.366,1.292.744,1.936,1.12A.385.385,0,0,1,2041.9,996.985Z"/><path class="l" d="M2036.426,978.155a.862.862,0,0,1,.509.307.36.36,0,0,1,0,.424c-.364.63-.726,1.261-1.092,1.89a.385.385,0,0,1-.527.166,1.605,1.605,0,0,1-.236-.132.385.385,0,0,1-.14-.549c.366-.642.739-1.281,1.112-1.92A.382.382,0,0,1,2036.426,978.155Z"/><path class="l" d="M2017.589,996.951a.373.373,0,0,1,.2-.339c.629-.366,1.257-.732,1.889-1.093a.392.392,0,0,1,.574.15,1.814,1.814,0,0,1,.129.237.381.381,0,0,1-.16.5q-.959.558-1.922,1.109a.383.383,0,0,1-.533-.139C2017.625,997.16,2017.587,997.071,2017.589,996.951Z"/><path class="l" d="M2041.9,983.662a.353.353,0,0,1-.184.33c-.638.374-1.276.749-1.918,1.114a.387.387,0,0,1-.561-.149,1.712,1.712,0,0,1-.13-.237.381.381,0,0,1,.168-.512q.943-.549,1.89-1.092a.381.381,0,0,1,.56.139A.752.752,0,0,1,2041.9,983.662Z"/><path class="l" d="M2023.037,1002.464a.832.832,0,0,1-.49-.306.348.348,0,0,1-.011-.408q.558-.969,1.12-1.936a.3.3,0,0,1,.068-.083c.185-.155.434-.115.719.113a.383.383,0,0,1,.092.518c-.237.425-.484.845-.727,1.267-.121.208-.24.417-.364.623A.4.4,0,0,1,2023.037,1002.464Z"/><path class="l" d="M2030.256,977.9c0,.367,0,.734,0,1.1a.384.384,0,0,1-.4.419,1.1,1.1,0,0,1-.323-.014.358.358,0,0,1-.3-.353c0-.764,0-1.528,0-2.292a.407.407,0,0,1,.065-.184c.1-.2.425-.2.679-.147.193.038.278.182.278.406V977.9Z"/><path class="l" d="M2017.325,990.822h-1.063a.377.377,0,0,1-.422-.405,2.032,2.032,0,0,1,0-.27.361.361,0,0,1,.368-.348c.752,0,1.5,0,2.255,0a.39.39,0,0,1,.107.015c.222.062.313.292.269.671a.373.373,0,0,1-.38.337C2018.083,990.825,2017.7,990.822,2017.325,990.822Z"/><path class="l" d="M2029.231,1002.7c0-.355,0-.71,0-1.064a.381.381,0,0,1,.419-.428c.078,0,.156,0,.234,0a.369.369,0,0,1,.369.366c.005.757,0,1.515,0,2.272a.349.349,0,0,1-.005.072c-.052.23-.257.324-.638.293a.373.373,0,0,1-.379-.378c-.005-.378,0-.757,0-1.135Z"/><path class="l" d="M2042.149,990.823c-.36,0-.721,0-1.082,0a.388.388,0,0,1-.43-.4,1.287,1.287,0,0,1,.017-.322.35.35,0,0,1,.358-.3c.751,0,1.5,0,2.254,0a.324.324,0,0,1,.313.174.743.743,0,0,1-.007.692.316.316,0,0,1-.305.154c-.372,0-.745,0-1.118,0Z"/><path class="d" d="M2156.485,944.5q-.591-.671-1.215-1.322c-.178-.186-.361-.37-.543-.553a45.038,45.038,0,0,0-8.141-6.462l-.114-.068q-1.324-.819-2.669-1.532a41.62,41.62,0,0,0-12.6-4.357q-1.608-.273-3.234-.415a41.074,41.074,0,0,0-7.436.04q-1.889.177-3.8.524-2.224.405-4.477,1.04a43.329,43.329,0,0,0-10.26,4.347q-1.648.969-3.191,2.086a42.342,42.342,0,0,0-11.4,12.509,40.474,40.474,0,0,0-5.8,22.131,41.3,41.3,0,0,0,1.278,9.091q.449,1.75,1.051,3.46a40.013,40.013,0,0,0,7.872,13.368,3.93,3.93,0,0,1,1.014,3.817c-.432,2.157-.834,4.234-1.211,6.26q-.328,1.766-.633,3.484-.261,1.477-.507,2.93a3,3,0,0,0,.1,1.774l.4.8.635-.231a3.8,3.8,0,0,0,.788-.07c.139-.025.3-.059.477-.106a8.417,8.417,0,0,0,1.213-.464l3.151-1.384,1.6-.7q1.535-.674,3.083-1.359c1.662-.736,3.328-1.482,4.973-2.235a5.964,5.964,0,0,1,1.44-.467,5.265,5.265,0,0,1,2.519.185,48.544,48.544,0,0,0,6.064,1.4q1.275.208,2.541.34l.214.021c.167.017.335.036.5.05a41.734,41.734,0,0,0,4.679.153c.939-.022,1.872-.081,2.8-.168q1.154-.107,2.3-.282a43.075,43.075,0,0,0,15.927-5.908q.463-.281.925-.572c.6-.379,1.174-.776,1.744-1.18a39.8,39.8,0,0,0,6.73-6,39.227,39.227,0,0,0,5.89-8.769,43.843,43.843,0,0,0,4.356-17.347c.047-.989.061-1.989.049-3a55.268,55.268,0,0,0-.9-9.287A34.677,34.677,0,0,0,2156.485,944.5Zm-5.14,25.638v2.164l8.977.185a38.438,38.438,0,0,1-3.816,15.2l-5.161-13.89v21.573a34.869,34.869,0,0,1-5.9,5.26c-.5.354-1.006.7-1.528,1.034-.27.171-.54.337-.811.5a37.75,37.75,0,0,1-13.954,5.177q-1,.152-2.013.247c-.815.076-1.633.127-2.455.147a36.875,36.875,0,0,1-4.1-.134c-.146-.013-.294-.029-.441-.044l-.187-.019q-1.109-.115-2.226-.3a42.545,42.545,0,0,1-5.313-1.229,4.614,4.614,0,0,0-2.207-.163,5.289,5.289,0,0,0-1.262.409c-1.441.66-2.9,1.314-4.356,1.959q-1.358.6-2.7,1.191l-1.4.616-2.761,1.212a7.375,7.375,0,0,1-1.063.407c-.158.041-.3.071-.418.093a3.343,3.343,0,0,1-.691.061l-.555.2-.352-.7a2.62,2.62,0,0,1-.085-1.553q.215-1.275.444-2.567.267-1.508.554-3.053c.331-1.775.682-3.595,1.061-5.484a3.441,3.441,0,0,0-.889-3.345,35.064,35.064,0,0,1-6.9-11.712l4.48,2.533v-2.511l-5.4-3.053a36.21,36.21,0,0,1-1.12-7.965,35.465,35.465,0,0,1,5.086-19.39,37.091,37.091,0,0,1,9.985-10.96q1.35-.978,2.8-1.828a37.956,37.956,0,0,1,8.988-3.808q1.974-.556,3.923-.911c1.116-.2,2.226-.355,3.329-.46a36.1,36.1,0,0,1,6.515-.034q1.425.123,2.833.363a36.492,36.492,0,0,1,11.045,3.818q1.177.625,2.338,1.342l.1.06a39.426,39.426,0,0,1,7.132,5.661c.16.16.32.321.476.485v3.9l1.065-2.743a30.378,30.378,0,0,1,7.163,13.643,48.351,48.351,0,0,1,.792,8.136l-10.579.166Z"/><path class="c" d="M2151.345,950.83v-3.9c-.156-.164-.316-.325-.476-.485l-6.63,16.008-5.344.579-4.925-12.253-2.8-8.952-4.546-2.92,3.632-3.343q-1.407-.238-2.833-.363l-2.7,2.485-3.815-2.451c-1.1.1-2.213.256-3.329.46l5.481,3.521-6.533,6.011a3.948,3.948,0,0,1,1.116,1.944l7.318-6.734,4.36,2.8,2.241,7.158-7.416,2.067-1.535,1.7-4.889-5.587a3.929,3.929,0,0,1-.788,1.923l-.19.278,4.39,5.017-4.671,5.159,1.179,1.955,7.7-8.505,6.953-1.938,4.346,10.815-17.623,1.908-1.376-2.28-1.465,1.618.913,1.466v15.477l2.208,1.919v-14.41l10.547,7.723,2.48,1.816a6.994,6.994,0,0,1,3.758-1.1h.024l-15.288-10.434,16.808-1.255,2.33,5.8,8.123.575,3.267,7.177V973.8l-.559-1.506.559.012v-2.164l-1.559-.11-3.138-7.1Zm-4.3,19.008-5.574-.4-1.562-3.885,5.016-.375Z"/><path class="c" d="M2142.615,981.86l0,.007a7,7,0,0,1,.5,2.581,7.1,7.1,0,0,1-.042.731,7.014,7.014,0,0,1-1.417,3.546l-.32.467,1.776,12.976c.271-.164.541-.33.811-.5.522-.332,1.029-.68,1.528-1.034l-2.014-15.623,7.91,7v-5.215l-.99.351Z"/><path class="c" d="M2135.527,980.858l.328.24.226-.173,1.31,1v-.9h.9v1.586l1.255.958-.112.148,1.113.816c0-.029,0-.056,0-.084a4.46,4.46,0,0,0-5.9-4.23l.874.64Z"/><path class="c" d="M2143.637,940.723q-1.161-.717-2.338-1.342l1.924,1.473Z"/><path class="c" d="M2127.143,1007.592q1.011-.094,2.013-.247l-1.111-1.8Z"/><path class="c" d="M2118.476,995.326l6.789,11.106,1.386-3.136L2119.3,991.41v-5.13l-2.208-1.919v8.133l-14.78,12.049-6.744-.415q-.288,1.547-.554,3.053l6.6,1.176.286,1.054q1.344-.591,2.7-1.191l-.119-.507Z"/><path class="c" d="M2113.292,981.059l-1.659-1.442-9.582,8.929-8.731-4.937v2.511l9.05,5.116Z"/><path class="c" d="M2112.292,958.29l1.476-1.806,2.693,4.464-11.984-19.863.189-.672q-1.446.85-2.8,1.828l.6.29Z"/><path class="l" d="M2129.507,1002.238l-1.852-1.217-1,2.275-1.386,3.136-.577,1.307c.822-.02,1.64-.071,2.455-.147l.9-2.043Z"/><path class="l" d="M2112.292,958.291l2.681,4.3-10.1,11.151,6.756,5.875,1.659,1.442,3.8,3.3,2.207,1.919,10.744,9.342-2.385,5.4,1.852,1.217,3.184-7.208-13.4-11.647-2.207-1.919-4.028-3.5-5.066-4.405,8.181-9.036,1.466-1.618-1.179-1.954-2.694-4.464Z"/><path class="a" d="M2119.3,986.28v5.13l7.355,11.886,1-2.275,2.385-5.4Z"/><path class="a" d="M2135.855,981.1l-.328-.24h0l.328.24Z"/><path class="a" d="M2133.76,993.774s-16-17.309-9.559-20.223l2.939,1.165,2.7,1.98-10.547-7.723v14.41l13.4,11.647-3.184,7.208-1.462,3.311,1.111,1.8a37.75,37.75,0,0,0,13.954-5.177l-10.419-.4Z"/><path class="a" d="M2139.431,983.716l1.114.815h0l-1.114-.815Z"/><path class="a" d="M2133.537,987.272V984l-.373.285-.544-.713,1.3-.99-1.379-.843a4.456,4.456,0,0,0,2.042,6.916v-1.379Z"/><path class="a" d="M2135.423,988.058v.8a4.045,4.045,0,0,0,1.317,0v-.8Z"/><path class="a" d="M2136.9,995.667l-.209.306h.859v3.7h-2.975v-3.7h.889l-.209-.306-4.753-6.947a7,7,0,0,1-.164-8.326l-4.578-2.795,1.376-2.883-2.939-1.165c-6.438,2.914,9.559,20.223,9.559,20.223l-1.069,8,10.419.4-1.776-12.976Z"/><path class="a" d="M2139,984.281l-.373-.285v3.276h-1.043v1.379a4.462,4.462,0,0,0,2.961-4.119l-1.113-.816Z"/><path class="a" d="M2134.035,983.68v3.094h1.075l.074-.057V984.88h1.794v1.837l.074.057h1.075V983.68l-2.046-1.563Z"/><path class="a" d="M2135.527,980.858l-1.568,1.688,1.9-1.447Z"/><path class="a" d="M2136.979,986.773h.074l-.074-.057Z"/><path class="a" d="M2134.58,987.272v1.379a4.465,4.465,0,0,0,.843.21v-.8h1.317v.8a4.465,4.465,0,0,0,.843-.21v-1.379Z"/><path class="a" d="M2135.184,986.773v-.057l-.074.057Z"/><path class="a" d="M2145.449,1000.633a34.869,34.869,0,0,0,5.9-5.26v-3.366l-7.91-7Z"/><path class="a" d="M2139.955,971.527l-2.33-5.8-16.808,1.255,15.288,10.434a7.031,7.031,0,0,1,6.51,4.443l7.74,5.283.99-.351v-7.513l-3.267-7.177Z"/><path class="a" d="M2139.911,965.558l1.562,3.885,5.574.395-2.119-4.655Z"/><path class="a" d="M2159.573,961.73a30.378,30.378,0,0,0-7.163-13.643l-1.065,2.743-4.7,12.1,3.138,7.1,10.579-.166A48.351,48.351,0,0,0,2159.573,961.73Z"/><path class="a" d="M2151.345,973.8l5.161,13.89a38.438,38.438,0,0,0,3.816-15.2l-8.977-.185-.559-.012Z"/><path class="a" d="M2118.476,995.326l-14,12.387.119.507c1.456-.645,2.915-1.3,4.356-1.959a5.289,5.289,0,0,1,1.262-.409,4.614,4.614,0,0,1,2.207.163,42.545,42.545,0,0,0,5.313,1.229,2.509,2.509,0,0,1,2.854.361,36.875,36.875,0,0,0,4.1.134l.577-1.307Z"/><path class="a" d="M2119.96,1007.542l.187.019v-.019Z"/><path class="a" d="M2095.01,1007.181q-.23,1.293-.444,2.567a2.62,2.62,0,0,0,.085,1.553l.352.7.555-.2a3.343,3.343,0,0,0,.691-.061c.122-.022.26-.052.418-.093a7.375,7.375,0,0,0,1.063-.407l2.761-1.212,1.4-.616-.286-1.054Z"/><path class="a" d="M2117.088,992.494v-8.133l-3.8-3.3-10.922,10.178-9.05-5.117-4.48-2.533a35.064,35.064,0,0,0,6.9,11.712,3.441,3.441,0,0,1,.889,3.345c-.379,1.889-.73,3.709-1.061,5.484l6.744.415Zm-3.185-2.6h2.214v3.4l-2.214,1.8Zm-3.236,7.661v-5.435h2.214v3.807l-2.214,1.8Zm-3.236,2.226v-5.435h2.214v4.219l-2.214,1.8ZM2104.2,1002v-5.435h2.214v4.631l-2.193,1.787h-.021Z"/><path class="a" d="M2113.061,977.962l4.028,3.5V965.987l-.914-1.466-8.181,9.036Z"/><path class="a" d="M2111.633,979.617l-6.756-5.874,10.1-11.151-2.681-4.3-9.823-15.759-.6-.29a37.091,37.091,0,0,0-9.985,10.96,35.465,35.465,0,0,0-5.086,19.39,36.21,36.21,0,0,0,1.12,7.965l5.4,3.053,8.731,4.937Z"/><path class="a" d="M2117.72,948.571l4.889,5.587,1.535-1.7,7.416-2.067-2.241-7.158-4.36-2.8-7.318,6.734a3.974,3.974,0,0,1,.111.918A4.043,4.043,0,0,1,2117.72,948.571Z"/><path class="a" d="M2127.421,935.2a36.1,36.1,0,0,0-6.515.034l3.815,2.451Z"/><path class="a" d="M2136.639,963.275l-4.345-10.815-6.953,1.938-7.7,8.5,1.376,2.281Z"/><path class="a" d="M2116.461,960.948l4.671-5.159-4.39-5.017-2.95,4.311-3.142-4.592a3.956,3.956,0,0,1,5.875-5.265l6.533-6.011-5.481-3.521q-1.948.354-3.923.911a37.956,37.956,0,0,0-8.988,3.808l-.189.672Z"/><path class="k" d="M2125.764,977.6l4.578,2.795a7.061,7.061,0,0,1,1.981-1.882l-2.48-1.816-2.7-1.98Z"/><path class="k" d="M2132.538,981.735l1.379.843.042-.032,1.568-1.688h0l-.874-.64A4.472,4.472,0,0,0,2132.538,981.735Z"/><path class="k" d="M2135.468,995.973h-.889v3.7h2.975v-3.7h-.859l-.614.9Z"/><path class="k" d="M2116.117,989.891H2113.9v5.2l2.214-1.8Z"/><path class="k" d="M2106.409,1001.2v-4.631H2104.2v6.418h.021Z"/><path class="k" d="M2112.881,992.117h-2.214v5.611l2.214-1.8Z"/><path class="k" d="M2109.646,998.462v-4.119h-2.214v6.023l2.214-1.8Z"/><path class="a" d="M2131.168,941.826l2.8,8.952,4.925,12.253,5.344-.579,6.63-16.008a39.426,39.426,0,0,0-7.132-5.661l-.1-.06-.414.131-1.924-1.473a36.492,36.492,0,0,0-11.045-3.818l-3.632,3.343Z"/><path class="l" d="M2130.342,980.394a7,7,0,0,0,.164,8.326l4.753,6.947.209.306.613.9.614-.9.209-.306,4.43-6.475.32-.467a7.014,7.014,0,0,0,1.417-3.546,7.1,7.1,0,0,0,.042-.731,7,7,0,0,0-.5-2.581l0-.007a7.031,7.031,0,0,0-6.51-4.443h-.024a7.055,7.055,0,0,0-5.739,2.978Zm5.739-.413a4.466,4.466,0,0,1,4.467,4.467c0,.028,0,.055,0,.084h0a4.458,4.458,0,1,1-4.463-4.551Z"/><path class="c" d="M2117.734,1007.244q1.118.183,2.226.3h.187v.019c.147.015.295.031.441.044a2.509,2.509,0,0,0-2.854-.361Z"/><path class="l" d="M2109.832,948.088a3.937,3.937,0,0,0,.818,2.4l3.142,4.592,2.95-4.311.19-.278a3.929,3.929,0,0,0,.788-1.923,4.043,4.043,0,0,0,.032-.483,3.96,3.96,0,1,0-7.92,0Zm6.476,0a2.516,2.516,0,1,1-2.516-2.516A2.515,2.515,0,0,1,2116.308,948.088Z"/><path class="c" d="M2111.277,948.088a2.516,2.516,0,1,0,2.515-2.516A2.515,2.515,0,0,0,2111.277,948.088Zm2.447-1.174a.628.628,0,0,1-.408.608v2.349a.153.153,0,0,1-.307,0v-2.349a.628.628,0,0,1-.408-.608v-.648a.1.1,0,1,1,.2,0v.648a.476.476,0,0,0,.1.3v-.959a.1.1,0,0,1,.205,0v1.083a.272.272,0,0,0,.05.006.283.283,0,0,0,.051-.006v-1.083a.1.1,0,0,1,.205,0v.959a.476.476,0,0,0,.1-.3v-.648a.1.1,0,0,1,.205,0Zm.137-.03v-.1a.565.565,0,1,1,1.123,0v.167a.627.627,0,0,1-.408.608v2.313a.153.153,0,0,1-.307,0v-2.313a.623.623,0,0,1-.407-.579h0Z"/><path class="l" d="M2133.164,984.281l.373-.285v3.276h5.089V984l.373.285.432-.565h0l.112-.148-1.255-.958v-1.586h-.9v.9l-1.31-1-.226.173h0l-1.9,1.448-.042.032-1.3.99Zm4.964-.6v3.093h-1.15v-1.894h-1.794v1.894h-1.149V983.68l2.047-1.563Z"/><path class="l" d="M2114.269,947.558v2.313a.153.153,0,0,0,.307,0v-2.313a.627.627,0,0,0,.408-.608v-.167a.565.565,0,1,0-1.123,0v.2h0A.623.623,0,0,0,2114.269,947.558Z"/><path class="l" d="M2113.621,946.164a.1.1,0,0,0-.1.1v.648a.476.476,0,0,1-.1.3v-.959a.1.1,0,0,0-.205,0v1.083a.283.283,0,0,1-.051.006.272.272,0,0,1-.05-.006v-1.083a.1.1,0,0,0-.205,0v.959a.476.476,0,0,1-.1-.3v-.648a.1.1,0,1,0-.2,0v.648a.628.628,0,0,0,.408.608v2.349a.153.153,0,0,0,.307,0v-2.349a.628.628,0,0,0,.408-.608v-.648A.1.1,0,0,0,2113.621,946.164Z"/><path class="k" d="M2166.689,959.713l-.007-.038c-2.01-9.67-9.116-19.112-19.009-25.257a44.919,44.919,0,0,0-62.029,14.855,42.94,42.94,0,0,0,4.619,50.489,1.95,1.95,0,0,1,.532,2.042c-.9,4.509-1.677,8.675-2.362,12.735-.3,1.754.021,3.071.945,3.914s2.274,1.047,4.008.587a10.468,10.468,0,0,0,1.561-.589l3.073-1.35c3.192-1.4,6.493-2.848,9.721-4.326a3.236,3.236,0,0,1,2.513-.181,45.107,45.107,0,0,0,21.145,1.4,45.813,45.813,0,0,0,16.5-6.6C2163.321,997.6,2170.345,979.771,2166.689,959.713Zm-1.173,12.646a43.843,43.843,0,0,1-4.356,17.347,39.227,39.227,0,0,1-5.89,8.769,39.8,39.8,0,0,1-6.73,6c-.57.4-1.148.8-1.744,1.18q-.462.293-.925.572a43.075,43.075,0,0,1-15.927,5.908q-1.145.174-2.3.282c-.93.087-1.863.146-2.8.168a41.734,41.734,0,0,1-4.679-.153c-.168-.014-.336-.033-.5-.05l-.214-.021q-1.266-.133-2.541-.34a48.544,48.544,0,0,1-6.064-1.4,5.265,5.265,0,0,0-2.519-.185,5.964,5.964,0,0,0-1.44.467c-1.645.753-3.311,1.5-4.973,2.235q-1.548.687-3.083,1.359l-1.6.7-3.151,1.384a8.417,8.417,0,0,1-1.213.464c-.181.047-.338.081-.477.106a3.8,3.8,0,0,1-.788.07l-.635.231-.4-.8a3,3,0,0,1-.1-1.774q.246-1.453.507-2.93.3-1.721.633-3.484c.377-2.026.779-4.1,1.211-6.26a3.93,3.93,0,0,0-1.014-3.817,40.013,40.013,0,0,1-7.872-13.368q-.6-1.709-1.051-3.46a41.3,41.3,0,0,1-1.278-9.091,40.474,40.474,0,0,1,5.8-22.131,42.342,42.342,0,0,1,11.4-12.509q1.542-1.116,3.191-2.086a43.329,43.329,0,0,1,10.26-4.347q2.253-.636,4.477-1.04,1.911-.348,3.8-.524a41.074,41.074,0,0,1,7.436-.04q1.626.141,3.234.415a41.62,41.62,0,0,1,12.6,4.357q1.344.715,2.669,1.532l.114.068a45.038,45.038,0,0,1,8.141,6.462c.182.183.365.367.543.553q.625.651,1.215,1.322a34.677,34.677,0,0,1,8.176,15.572,55.268,55.268,0,0,1,.9,9.287C2165.577,970.37,2165.563,971.37,2165.516,972.359Z"/><path class="l" d="M1821.213,1050.511a15.105,15.105,0,0,0,.354,17.966l10.255,14.99.452.66,1.324,1.935,1.323-1.935.452-.66,9.56-13.973.689-1.008a15.08,15.08,0,0,0,2.079-14.8l-.006-.014a15.167,15.167,0,0,0-14.046-9.587l-.051,0a15.082,15.082,0,0,0-8.11,2.365A15.234,15.234,0,0,0,1821.213,1050.511Zm12.385-.892a9.638,9.638,0,0,1,9.638,9.639c0,.061-.008.12-.009.181h0a9.619,9.619,0,0,1-8.209,9.342,8.758,8.758,0,0,1-2.841,0,9.635,9.635,0,0,1,1.421-19.162Z"/><path class="l" d="M1827.3,1058.9l.806-.615v7.067h10.981v-7.067l.805.615.93-1.22h0l.244-.318-2.709-2.069v-3.421h-1.937v1.944l-2.824-2.158-.489.373h0l-4.091,3.123-.09.069-2.8,2.138Zm10.711-1.3v6.676h-2.48v-4.087h-3.871v4.087h-2.479V1057.6l4.415-3.372Z"/><text class="q" transform="translate(2133.097 1146)"><tspan x="0" y="0">FOOD</tspan></text></g></svg>